# xmcd
#
# Track frame offsets:
# 150
# 7352
# 27222
# 42376
# 58171
# 74305
# 114301
# 128879
# 147295
# 158116
# 174733
# 187992
# 207273
# 229236
# 245576
# 258130
# 274812
#
# Disc length: 3771 seconds
#
#
# Revision: 0
# Processed by: cddbd v1.5.1PL0 Copyright (c) Steve Scherf et al.
# Submitted via: FreeRIP 2.942 
#
DISCID=fa0eb911
DTITLE=Banda Calypso - Na Amazônia
DYEAR=1900
DGENRE=Forró
TTITLE0=Abertura
TTITLE1=Pra Te Esquecer
TTITLE2=Nenê
TTITLE3=Anjo
TTITLE4=Primeiro Amor
TTITLE5=Disse Adeus
TTITLE6=Dois Corações
TTITLE7=Imagino
TTITLE8=Lágrimas de Sangue
TTITLE9=Love You Mon Amor
TTITLE10=Lambada Complicada
TTITLE11=Homem Perefeito
TTITLE12=Pout - Pourri de Carimbó
TTITLE13=Fala Pra Mim
TTITLE14=Brincou Comigo
TTITLE15=Paquera
TTITLE16=Encerramento
EXTD=
EXTT0=
EXTT1=
EXTT2=
EXTT3=
EXTT4=
EXTT5=
EXTT6=
EXTT7=
EXTT8=
EXTT9=
EXTT10=
EXTT11=
EXTT12=
EXTT13=
EXTT14=
EXTT15=
EXTT16=
PLAYORDER=
